# xmcd
#
# Track frame offsets: 
#        150
#        18729
#        31592
#        43617
#        58663
#        68065
#        78696
#        90414
#        100499
#        114495
#        125510
#        135298
#        147887
#        159999
#        176641
#        218121
#        241804
#        254885
#        267909
#        283838
#
# Disc length: 3912 seconds
#
# Revision: 0
# Processed by: cddbd v1.5.2PL0 Copyright (c) Steve Scherf et al.
# Submitted via: ExactAudioCopyFreeDBPlugin 1.0
#
DISCID=1f0f4614
DTITLE=Various Artist - Soul Legends CD 3
DYEAR=2010
DGENRE=Soul
TTITLE0=Little Richard - I don't know what you got but it's got me
TTITLE1=Liz Lands - One man's poison
TTITLE2=Ike Turner and the Kings of rythm - Thinking black
TTITLE3=Mini Riperton - Come to my garden
TTITLE4=The Staple Singers - This may be the last time
TTITLE5=The Showmen - I will stand
TTITLE6=Lightnin' Rod - Sport
TTITLE7=Joe Tax - I gotcha
TTITLE8=Lee Dorsey - Everything i do gonh be funky
TTITLE9=The meters - Tippi toes
TTITLE10=Doris Duke - I can't do with out you
TTITLE11=Gene Chandler - Think nothing about it
TTITLE12=Jesse Anderson - Reading in astrology
TTITLE13=Leroy Hutson - Get to this
TTITLE14=Linda clifford - Don't give it up
TTITLE15=Mavis Staples - Chocolate city
TTITLE16=The Meters - Handclapping song
TTITLE17=Bettye Lavette - Let me down easy
TTITLE18=Irma Thomas - Lady Marmelade
TTITLE19=Betty Evert and Jerry Butler - In can't stand it
EXTD=
EXTT0=
EXTT1=
EXTT2=
EXTT3=
EXTT4=
EXTT5=
EXTT6=
EXTT7=
EXTT8=
EXTT9=
EXTT10=
EXTT11=
EXTT12=
EXTT13=
EXTT14=
EXTT15=
EXTT16=
EXTT17=
EXTT18=
EXTT19=
PLAYORDER=
